<?xml version="1.0" encoding="UTF-8" standalone="no"?>
<!-- Created with Inkscape (http://www.inkscape.org/) -->

<svg
   xmlns:dc="http://purl.org/dc/elements/1.1/"
   xmlns:cc="http://creativecommons.org/ns#"
   xmlns:rdf="http://www.w3.org/1999/02/22-rdf-syntax-ns#"
   xmlns:svg="http://www.w3.org/2000/svg"
   xmlns="http://www.w3.org/2000/svg"
   xmlns:sodipodi="http://sodipodi.sourceforge.net/DTD/sodipodi-0.dtd"
   xmlns:inkscape="http://www.inkscape.org/namespaces/inkscape"
   version="1.1"
   id="svg2"
   width="32"
   height="32"
   viewBox="0 0 32 32"
   sodipodi:docname="favicon.ico.svg"
   inkscape:version="0.92.3 (2405546, 2018-03-11)">
  <metadata
     id="metadata8">
    <rdf:RDF>
      <cc:Work
         rdf:about="">
        <dc:format>image/svg+xml</dc:format>
        <dc:type
           rdf:resource="http://purl.org/dc/dcmitype/StillImage" />
        <dc:title />
      </cc:Work>
    </rdf:RDF>
  </metadata>
  <defs
     id="defs6" />
  <sodipodi:namedview
     pagecolor="#ffffff"
     bordercolor="#666666"
     borderopacity="1"
     objecttolerance="10"
     gridtolerance="10"
     guidetolerance="10"
     inkscape:pageopacity="0"
     inkscape:pageshadow="2"
     inkscape:window-width="1366"
     inkscape:window-height="695"
     id="namedview4"
     showgrid="false"
     inkscape:zoom="7.375"
     inkscape:cx="-1.559322"
     inkscape:cy="16"
     inkscape:window-x="0"
     inkscape:window-y="0"
     inkscape:window-maximized="1"
     inkscape:current-layer="svg2" />
  <g
     transform="matrix(1.4762343,0,0,1.475626,-488.96414,-36.057107)"
     id="g7440-0-5"
     style="display:inline;opacity:0.48858445;enable-background:new" />
  <g
     transform="matrix(1.4762343,0,0,1.475626,-486.32948,-41.326427)"
     id="g7440-03-2"
     style="display:inline;opacity:0.48858445;enable-background:new" />
  <g
     transform="matrix(1.5559244,0,0,1.5550445,-520.58645,-14.836955)"
     id="g7440-8-9"
     style="display:inline;opacity:0.48858445;enable-background:new" />
  <path
     inkscape:connector-curvature="0"
     id="path2397-1-3"
     style="fill:#0044aa;fill-opacity:1;fill-rule:evenodd;stroke-width:0.84934688"
     d="m 13.571047,6.286198 c 2.735648,0 5.079266,1.4748135 6.325287,3.5998363 0.701454,-0.5001065 1.597466,-0.8238753 2.580678,-0.8238753 2.234557,0 4.048207,1.55448 4.048207,3.469894 0,0.430153 -0.08588,0.834195 -0.253028,1.214437 2.541335,0.971547 4.301059,3.174538 4.301059,5.724857 0,3.45872 -3.249839,6.24464 -7.286624,6.24464 H 8.7133793 c -4.0367877,0 -7.2866293,-2.785677 -7.2866293,-6.24561 0,-2.742201 2.0548242,-5.054492 4.9087628,-5.899739 -0.00748,-0.11853 -0.050993,-0.226856 -0.050993,-0.347085 0,-3.8305807 3.2644078,-6.9395399 7.2866132,-6.9395399 z"
     sodipodi:nodetypes="ccsscsssscscc" />
  <g
     id="g3436"
     transform="matrix(0.29186929,0,0,0.29186929,-8.8088889,1.5524702)">
    <path
       inkscape:connector-curvature="0"
       id="rect3259-2-8-6"
       style="color:#bebebe;text-indent:0;text-transform:none;fill:#ffffff"
       d="m 65.287594,33.514881 v 3.137666 18.826001 c 0,6.500304 4.736622,11.549751 8.922897,15.296125 4.186275,3.746374 8.33427,6.275333 8.33427,6.275333 l 1.568833,0.882469 1.666886,-0.980521 c 0,0 4.061082,-2.502509 8.236375,-6.275333 4.173097,-3.796577 8.910975,-8.816844 8.910975,-15.217684 v -18.826 -3.137667 H 99.790162 68.413495 65.275828 Z m 6.275333,6.275333 h 25.101334 v 15.688334 c 0,2.885649 -3.096751,7.274366 -6.765437,10.589625 -2.842381,2.568399 -4.640295,3.573802 -5.78523,4.314291 -1.110012,-0.697911 -2.913606,-1.64649 -5.78523,-4.216396 -3.67107,-3.29455 -6.77736,-7.62453 -6.77736,-10.699444 V 39.778291 Z" />
    <path
       inkscape:connector-curvature="0"
       id="rect4034-7-1-6"
       style="color:#bebebe;fill:#ffffff"
       d="m 74.700594,42.927881 v 12.550667 c 0,1.121339 2.369472,5.150166 5.78523,8.236375 1.805068,1.631053 2.310484,1.821478 3.62777,2.745458 1.317444,-0.92398 1.822859,-1.114405 3.627771,-2.745458 3.415664,-3.086335 5.785229,-7.114973 5.785229,-8.236375 V 42.927881 Z" />
  </g>
</svg>
