<?xml version="1.0" encoding="UTF-8" standalone="no"?>
<!-- Created with Inkscape (http://www.inkscape.org/) -->

<svg
   xmlns:dc="http://purl.org/dc/elements/1.1/"
   xmlns:cc="http://creativecommons.org/ns#"
   xmlns:rdf="http://www.w3.org/1999/02/22-rdf-syntax-ns#"
   xmlns:svg="http://www.w3.org/2000/svg"
   xmlns="http://www.w3.org/2000/svg"
   xmlns:sodipodi="http://sodipodi.sourceforge.net/DTD/sodipodi-0.dtd"
   xmlns:inkscape="http://www.inkscape.org/namespaces/inkscape"
   version="1.1"
   id="svg2"
   width="16"
   height="16"
   viewBox="0 0 16 16"
   sodipodi:docname="favicon-16x16.svg"
   inkscape:version="0.92.3 (2405546, 2018-03-11)">
  <metadata
     id="metadata8">
    <rdf:RDF>
      <cc:Work
         rdf:about="">
        <dc:format>image/svg+xml</dc:format>
        <dc:type
           rdf:resource="http://purl.org/dc/dcmitype/StillImage" />
        <dc:title />
      </cc:Work>
    </rdf:RDF>
  </metadata>
  <defs
     id="defs6" />
  <sodipodi:namedview
     pagecolor="#ffffff"
     bordercolor="#666666"
     borderopacity="1"
     objecttolerance="10"
     gridtolerance="10"
     guidetolerance="10"
     inkscape:pageopacity="0"
     inkscape:pageshadow="2"
     inkscape:window-width="1366"
     inkscape:window-height="695"
     id="namedview4"
     showgrid="false"
     inkscape:zoom="14.75"
     inkscape:cx="-0.77966102"
     inkscape:cy="8"
     inkscape:window-x="0"
     inkscape:window-y="0"
     inkscape:window-maximized="1"
     inkscape:current-layer="svg2" />
  <g
     transform="matrix(0.72766267,0,0,0.72736284,-240.90599,-17.659893)"
     id="g7440-0-5"
     style="display:inline;opacity:0.48858445;enable-background:new" />
  <g
     transform="matrix(0.72766267,0,0,0.72736284,-239.60732,-20.257236)"
     id="g7440-03-2"
     style="display:inline;opacity:0.48858445;enable-background:new" />
  <g
     transform="matrix(0.76694338,0,0,0.76650963,-256.4932,-7.2000949)"
     id="g7440-8-9"
     style="display:inline;opacity:0.48858445;enable-background:new" />
  <path
     inkscape:connector-curvature="0"
     id="path2397-1-3"
     style="fill:#0044aa;fill-opacity:1;fill-rule:evenodd;stroke-width:0.41865849"
     d="m 6.8027251,3.2118905 c 1.3484502,0 2.5036621,0.7269623 3.1178487,1.7744247 C 10.266333,4.7398036 10.707994,4.580212 11.192637,4.580212 c 1.101453,0 1.995434,0.7662315 1.995434,1.7103734 0,0.2120304 -0.04233,0.41119 -0.124722,0.5986184 1.25267,0.4788934 2.12007,1.5647878 2.12007,2.8218864 0,1.7048658 -1.601905,3.0780958 -3.591709,3.0780958 H 4.4082924 c -1.9898059,0 -3.59171177,-1.37311 -3.59171177,-3.0785739 0,-1.3516809 1.01286017,-2.4914512 2.41961827,-2.9080891 -0.00368,-0.058425 -0.025134,-0.1118215 -0.025134,-0.1710847 0,-1.8881624 1.6090859,-3.4206248 3.591704,-3.4206248 z"
     sodipodi:nodetypes="ccsscsssscscc" />
  <g
     id="g3436"
     transform="matrix(0.14386767,0,0,0.14386767,-4.2287516,0.87855014)">
    <path
       inkscape:connector-curvature="0"
       id="rect3259-2-8-6"
       style="color:#bebebe;text-indent:0;text-transform:none;fill:#ffffff"
       d="m 65.287594,33.514881 v 3.137666 18.826001 c 0,6.500304 4.736622,11.549751 8.922897,15.296125 4.186275,3.746374 8.33427,6.275333 8.33427,6.275333 l 1.568833,0.882469 1.666886,-0.980521 c 0,0 4.061082,-2.502509 8.236375,-6.275333 4.173097,-3.796577 8.910975,-8.816844 8.910975,-15.217684 v -18.826 -3.137667 H 99.790162 68.413495 65.275828 Z m 6.275333,6.275333 h 25.101334 v 15.688334 c 0,2.885649 -3.096751,7.274366 -6.765437,10.589625 -2.842381,2.568399 -4.640295,3.573802 -5.78523,4.314291 -1.110012,-0.697911 -2.913606,-1.64649 -5.78523,-4.216396 -3.67107,-3.29455 -6.77736,-7.62453 -6.77736,-10.699444 V 39.778291 Z" />
    <path
       inkscape:connector-curvature="0"
       id="rect4034-7-1-6"
       style="color:#bebebe;fill:#ffffff"
       d="m 74.700594,42.927881 v 12.550667 c 0,1.121339 2.369472,5.150166 5.78523,8.236375 1.805068,1.631053 2.310484,1.821478 3.62777,2.745458 1.317444,-0.92398 1.822859,-1.114405 3.627771,-2.745458 3.415664,-3.086335 5.785229,-7.114973 5.785229,-8.236375 V 42.927881 Z" />
  </g>
</svg>
