<?xml version="1.0" encoding="UTF-8" standalone="no"?>
<!-- Created with Inkscape (http://www.inkscape.org/) -->

<svg
   xmlns:dc="http://purl.org/dc/elements/1.1/"
   xmlns:cc="http://creativecommons.org/ns#"
   xmlns:rdf="http://www.w3.org/1999/02/22-rdf-syntax-ns#"
   xmlns:svg="http://www.w3.org/2000/svg"
   xmlns="http://www.w3.org/2000/svg"
   xmlns:sodipodi="http://sodipodi.sourceforge.net/DTD/sodipodi-0.dtd"
   xmlns:inkscape="http://www.inkscape.org/namespaces/inkscape"
   version="1.1"
   id="svg2"
   width="32"
   height="32"
   viewBox="0 0 32 32"
   sodipodi:docname="favicon-32x32.svg"
   inkscape:version="0.92.3 (2405546, 2018-03-11)">
  <metadata
     id="metadata8">
    <rdf:RDF>
      <cc:Work
         rdf:about="">
        <dc:format>image/svg+xml</dc:format>
        <dc:type
           rdf:resource="http://purl.org/dc/dcmitype/StillImage" />
        <dc:title />
      </cc:Work>
    </rdf:RDF>
  </metadata>
  <defs
     id="defs6" />
  <sodipodi:namedview
     pagecolor="#ffffff"
     bordercolor="#666666"
     borderopacity="1"
     objecttolerance="10"
     gridtolerance="10"
     guidetolerance="10"
     inkscape:pageopacity="0"
     inkscape:pageshadow="2"
     inkscape:window-width="1366"
     inkscape:window-height="695"
     id="namedview4"
     showgrid="false"
     inkscape:zoom="7.375"
     inkscape:cx="-1.559322"
     inkscape:cy="16"
     inkscape:window-x="0"
     inkscape:window-y="0"
     inkscape:window-maximized="1"
     inkscape:current-layer="svg2" />
  <g
     transform="matrix(1.8539539,0,0,1.85319,-657.62542,-53.444599)"
     id="g7440-0-5"
     style="display:inline;opacity:0.48858445;enable-background:new" />
  <g
     transform="matrix(1.8539539,0,0,1.85319,-654.31664,-60.062164)"
     id="g7440-03-2"
     style="display:inline;opacity:0.48858445;enable-background:new" />
  <g
     transform="matrix(1.9540341,0,0,1.952929,-697.33884,-26.794911)"
     id="g7440-8-9"
     style="display:inline;opacity:0.48858445;enable-background:new" />
  <path
     inkscape:connector-curvature="0"
     id="path2397-1-3"
     style="fill:#0044aa;fill-opacity:1;fill-rule:evenodd;stroke-width:0.85329813"
     d="m 13.559748,6.2410078 c 2.748373,0 5.102895,1.4816745 6.354712,3.6165832 0.704718,-0.5024331 1.604898,-0.8277082 2.592684,-0.8277082 2.244952,0 4.067039,1.5617122 4.067039,3.4860352 0,0.432155 -0.08628,0.838077 -0.254205,1.220088 2.553158,0.976068 4.321069,3.189308 4.321069,5.751491 0,3.47481 -3.264959,6.27369 -7.320523,6.27369 H 8.6794809 c -4.055567,0 -7.3205274,-2.798636 -7.3205274,-6.274665 0,-2.754958 2.0643836,-5.078007 4.9315989,-5.927186 -0.00752,-0.119082 -0.05123,-0.227912 -0.05123,-0.348701 0,-3.8483998 3.2795942,-6.9718223 7.3205116,-6.9718223 z"
     sodipodi:nodetypes="ccsscsssscscc" />
  <g
     id="g3436"
     transform="matrix(0.2932271,0,0,0.2932271,-8.9243027,1.4852581)">
    <path
       inkscape:connector-curvature="0"
       id="rect3259-2-8-6"
       style="color:#bebebe;text-indent:0;text-transform:none;fill:#ffffff"
       d="m 65.287594,33.514881 v 3.137666 18.826001 c 0,6.500304 4.736622,11.549751 8.922897,15.296125 4.186275,3.746374 8.33427,6.275333 8.33427,6.275333 l 1.568833,0.882469 1.666886,-0.980521 c 0,0 4.061082,-2.502509 8.236375,-6.275333 4.173097,-3.796577 8.910975,-8.816844 8.910975,-15.217684 v -18.826 -3.137667 H 99.790162 68.413495 65.275828 Z m 6.275333,6.275333 h 25.101334 v 15.688334 c 0,2.885649 -3.096751,7.274366 -6.765437,10.589625 -2.842381,2.568399 -4.640295,3.573802 -5.78523,4.314291 -1.110012,-0.697911 -2.913606,-1.64649 -5.78523,-4.216396 -3.67107,-3.29455 -6.77736,-7.62453 -6.77736,-10.699444 V 39.778291 Z" />
    <path
       inkscape:connector-curvature="0"
       id="rect4034-7-1-6"
       style="color:#bebebe;fill:#ffffff"
       d="m 74.700594,42.927881 v 12.550667 c 0,1.121339 2.369472,5.150166 5.78523,8.236375 1.805068,1.631053 2.310484,1.821478 3.62777,2.745458 1.317444,-0.92398 1.822859,-1.114405 3.627771,-2.745458 3.415664,-3.086335 5.785229,-7.114973 5.785229,-8.236375 V 42.927881 Z" />
  </g>
</svg>
